<mxfile host="65bd71144e">
    <diagram id="kxQlTuLVXlDyLK7oyP0E" name="Page-1">
        <mxGraphModel dx="748" dy="528" grid="1" gridSize="10" guides="1" tooltips="1" connect="1" arrows="1" fold="1" page="1" pageScale="1" pageWidth="850" pageHeight="1100" math="0" shadow="0">
            <root>
                <mxCell id="0"/>
                <mxCell id="1" parent="0"/>
                <mxCell id="12" value="" style="shape=flexArrow;endArrow=classic;html=1;fillColor=#e51400;strokeColor=#B20000;" edge="1" parent="1" source="8">
                    <mxGeometry width="50" height="50" relative="1" as="geometry">
                        <mxPoint x="640" y="419.9999999999999" as="sourcePoint"/>
                        <mxPoint x="370" y="424" as="targetPoint"/>
                    </mxGeometry>
                </mxCell>
                <mxCell id="11" value="" style="shape=flexArrow;endArrow=classic;html=1;fillColor=#60a917;strokeColor=#2D7600;" edge="1" parent="1" source="6" target="2">
                    <mxGeometry width="50" height="50" relative="1" as="geometry">
                        <mxPoint x="630" y="299.9999999999999" as="sourcePoint"/>
                        <mxPoint x="150" y="392" as="targetPoint"/>
                    </mxGeometry>
                </mxCell>
                <mxCell id="10" value="" style="shape=flexArrow;endArrow=classic;html=1;fillColor=#60a917;strokeColor=#2D7600;" edge="1" parent="1" source="4" target="2">
                    <mxGeometry width="50" height="50" relative="1" as="geometry">
                        <mxPoint x="420" y="230" as="sourcePoint"/>
                        <mxPoint x="470" y="180" as="targetPoint"/>
                    </mxGeometry>
                </mxCell>
                <mxCell id="2" value="&lt;span style=&quot;&quot;&gt;EC2 Instance&lt;/span&gt;&lt;br style=&quot;&quot;&gt;&lt;span style=&quot;&quot;&gt;IP xx.xx.xx.xx&lt;/span&gt;" style="rounded=0;whiteSpace=wrap;html=1;" vertex="1" parent="1">
                    <mxGeometry x="40" y="130" width="120" height="360" as="geometry"/>
                </mxCell>
                <mxCell id="3" value="Security group 1&#10;&#10;&#10;Inbound&#10;&#10;Authorising Security Group 1&#10;&#10;Authorising Security Group 2" style="fillColor=#e3c800;strokeColor=#B09500;verticalAlign=top;fontStyle=0;fontColor=#000000;fillStyle=auto;gradientColor=none;" vertex="1" parent="1">
                    <mxGeometry x="180" y="140" width="190" height="330" as="geometry"/>
                </mxCell>
                <mxCell id="4" value="EC2 Intance&lt;br&gt;IP xx.xx.xx.xx" style="rounded=0;whiteSpace=wrap;html=1;" vertex="1" parent="1">
                    <mxGeometry x="640" y="145" width="120" height="100" as="geometry"/>
                </mxCell>
                <mxCell id="5" value="Security group 2&#10;&#10;(Attached)" style="fillColor=#e3c800;strokeColor=#B09500;verticalAlign=top;fontStyle=0;fontColor=#000000;" vertex="1" parent="1">
                    <mxGeometry x="520" y="157.5" width="130" height="75" as="geometry"/>
                </mxCell>
                <mxCell id="6" value="EC2 Intance&lt;br&gt;IP xx.xx.xx.xx" style="rounded=0;whiteSpace=wrap;html=1;" vertex="1" parent="1">
                    <mxGeometry x="640" y="255" width="120" height="100" as="geometry"/>
                </mxCell>
                <mxCell id="7" value="Security group 1&#10;&#10;(Attached)" style="fillColor=#e3c800;strokeColor=#B09500;verticalAlign=top;fontStyle=0;fontColor=#000000;" vertex="1" parent="1">
                    <mxGeometry x="520" y="267.5" width="130" height="75" as="geometry"/>
                </mxCell>
                <mxCell id="8" value="EC2 Intance&lt;br&gt;IP xx.xx.xx.xx" style="rounded=0;whiteSpace=wrap;html=1;" vertex="1" parent="1">
                    <mxGeometry x="640" y="365" width="120" height="100" as="geometry"/>
                </mxCell>
                <mxCell id="9" value="Security group 3&#10;&#10;(Attached)" style="fillColor=#647687;strokeColor=#314354;verticalAlign=top;fontStyle=0;fontColor=#ffffff;" vertex="1" parent="1">
                    <mxGeometry x="520" y="377.5" width="130" height="75" as="geometry"/>
                </mxCell>
            </root>
        </mxGraphModel>
    </diagram>
</mxfile>